<svg xmlns="http://www.w3.org/2000/svg" width="35.381" height="35.381" viewBox="0 0 35.381 35.381"><g transform="translate(-1093.292 -96.447)"><circle cx="17.691" cy="17.691" r="17.691" transform="translate(1093.292 96.447)"/><path d="M1103.2,109.184h3.806v12.225H1103.2Zm1.9-6.075a2.2,2.2,0,1,1-2.206,2.2,2.2,2.2,0,0,1,2.206-2.2" fill="#fff"/><path d="M1109.389,109.184h3.645v1.672h.05a4,4,0,0,1,3.6-1.974c3.847,0,4.556,2.53,4.556,5.822v6.7h-3.8v-5.943c0-1.419-.028-3.242-1.975-3.242-1.978,0-2.28,1.544-2.28,3.138v6.047h-3.8Z" fill="#fff"/></g></svg>