<svg xmlns="http://www.w3.org/2000/svg" xmlns:xlink="http://www.w3.org/1999/xlink" width="220" height="41.039" viewBox="0 0 220 41.039"><defs><clipPath id="a"><rect width="220" height="41.039" fill="#fff"/></clipPath></defs><g transform="translate(0 -0.001)"><path d="M89.243,39.508V8.584H99.524v3.747H93.388v9.39h5.452v3.747H93.4V35.761h6.136v3.747Z" transform="translate(-35.696 -3.433)" fill="#fff"/><g transform="translate(0 0.001)"><g clip-path="url(#a)"><path d="M118.314,16.892v-2.71A1.624,1.624,0,0,0,116.5,12.33h-.654c-1.189,0-1.768.622-1.768,1.852v5.124a1.574,1.574,0,0,0,.341,1.171,7.472,7.472,0,0,0,1.129.77l3.937,2.118c.862.489,1.471.874,1.843,1.141a3.02,3.02,0,0,1,.847.992,5.349,5.349,0,0,1,.3,2.222V34.31q0,5.22-5.006,5.213h-2.556q-4.97,0-4.962-5.687V32.28h4.145v1.673a1.624,1.624,0,0,0,1.857,1.807h.728c1.1,0,1.649-.607,1.649-1.807V28.7a1.571,1.571,0,0,0-.342-1.17,8.276,8.276,0,0,0-1.129-.77l-3.952-2.192a12.364,12.364,0,0,1-1.887-1.17,2.7,2.7,0,0,1-.847-1.229,6.015,6.015,0,0,1-.253-1.955V13.885c0-3.525,1.649-5.3,4.963-5.3h2.585q4.97,0,4.962,5.3v3.022h-4.115Z" transform="translate(-43.967 -3.434)" fill="#fff"/><path d="M150.916,39.508H139.639q-5.015,0-5.007-5.213V13.886c0-3.524,1.649-5.3,4.963-5.3h3.982q4.97,0,4.962,5.3V35.761h2.377Zm-6.537-3.747V14.138a1.624,1.624,0,0,0-1.857-1.807h-1.946a1.6,1.6,0,0,0-1.813,1.807V33.955a1.623,1.623,0,0,0,1.857,1.807Z" transform="translate(-53.852 -3.434)" fill="#fff"/><path d="M178.541,8.583V33.657q0,5.865-5.007,5.865h-3.506q-4.97,0-4.962-5.894V8.6h4.145V33.746c0,1.348.61,2.029,1.813,2.029H172.7c1.129,0,1.679-.681,1.679-2.029V8.583Z" transform="translate(-66.025 -3.434)" fill="#fff"/><path d="M195.259,39.507h-4.145V13.885c0-3.525,1.649-5.3,4.963-5.3h3.105q4.97,0,4.963,5.3V39.507H200V28.177h-4.754v11.33Zm4.754-15.077V14.137A1.6,1.6,0,0,0,198.2,12.33h-1.129a1.6,1.6,0,0,0-1.813,1.807V24.43Z" transform="translate(-76.444 -3.434)" fill="#fff"/><path d="M216.223,39.508V8.584h7.221q5.838,0,5.839,5.939v20.5c0,2.992-1.664,4.472-4.962,4.472h-8.1Zm4.145-3.747h3.105q1.65,0,1.649-1.378V14.567c0-1.5-.624-2.236-1.857-2.236h-2.9Z" transform="translate(-86.488 -3.434)" fill="#fff"/><path d="M248.191,28.177V24.43h6.314V39.507h-8.127q-4.792,0-4.8-5.213V13.885c0-3.525,1.6-5.3,4.8-5.3h2.852q5.282,0,5.275,5.391v3.362h-4.145v-2.77c0-1.5-.594-2.236-1.768-2.236h-1.04c-1.2,0-1.813.74-1.813,2.236V33.524c0,1.5.609,2.236,1.813,2.236h2.808V28.177Z" transform="translate(-96.63 -3.434)" fill="#fff"/><path d="M266.639,8.583h8.127q4.748,0,4.754,5.3v7.627c0,2.7-.817,4.414-2.466,5.125l2.9,12.885h-3.937L273.3,27.037h-2.511V39.522h-4.145Zm4.145,14.9H273.5c1.233,0,1.857-.74,1.857-2.236V14.567c0-1.5-.624-2.237-1.857-2.237h-2.719Z" transform="translate(-106.654 -3.434)" fill="#fff"/><path d="M297.547,39.508q-5.015,0-5.007-5.258V13.886c0-3.524,1.649-5.3,4.963-5.3h3.982q4.97,0,4.962,5.3V34.251q0,5.265-5.006,5.258Zm1-3.747h2.11c1.1,0,1.649-.607,1.649-1.807V14.138a1.624,1.624,0,0,0-1.857-1.807H298.5a1.6,1.6,0,0,0-1.813,1.807V33.955a1.623,1.623,0,0,0,1.857,1.807" transform="translate(-117.014 -3.434)" fill="#fff"/><path d="M332.71,8.583V33.657q0,5.865-5.007,5.865H324.2q-4.97,0-4.962-5.894V8.6h4.145V33.746c0,1.348.61,2.029,1.813,2.029h1.679c1.13,0,1.679-.681,1.679-2.029V8.583Z" transform="translate(-127.691 -3.434)" fill="#fff"/><path d="M345.681,8.583h7.562q5.014,0,5.006,5.3v9.168c0,3.509-1.664,5.257-4.962,5.257h-3.447v11.2h-4.16Zm4.16,15.981h2.63c1.1,0,1.649-.607,1.649-1.806v-8.62a1.624,1.624,0,0,0-1.858-1.807h-2.422Z" transform="translate(-138.27 -3.434)" fill="#fff"/><path d="M37.589,26.549h4.576l8.023-7.983L47.9,16.285Z" transform="translate(-15.035 -6.514)" fill="#fff"/><path d="M58.206,39.27A6.336,6.336,0,0,0,60,35.612H47.345l7.265,7.243Z" transform="translate(-18.938 -14.245)" fill="#fff"/><path d="M60.008,28.484A6.187,6.187,0,0,0,58.2,24.6L54.7,21.123,47.32,28.484Z" transform="translate(-18.928 -8.449)" fill="#fff"/><path d="M29.507,23.132l10.92-10.9-4.5-4.487L20.5,23.132Z" transform="translate(-8.201 -3.098)" fill="#fff"/><path d="M11.158,35.612H.3a6.164,6.164,0,0,0,1.8,3.658L16.3,53.429a6.318,6.318,0,0,0,8.9,0l1.917-1.91Z" transform="translate(-0.119 -14.245)" fill="#fff"/><path d="M11.138,20.143,27.2,4.133,25.164,2.1a6.318,6.318,0,0,0-8.9,0L2.06,16.263a6.19,6.19,0,0,0-1.813,3.88Z" transform="translate(-0.099 -0.109)" fill="#fff"/><path d="M35.821,50.882l4.5-4.487L29.507,35.613h-9Z" transform="translate(-8.201 -14.245)" fill="#fff"/><path d="M42.165,35.612H37.589L47.781,45.758l2.288-2.266Z" transform="translate(-15.035 -14.245)" fill="#fff"/></g></g></g></svg>