<svg xmlns="http://www.w3.org/2000/svg" xmlns:xlink="http://www.w3.org/1999/xlink" width="239.965" height="109.66" viewBox="0 0 239.965 109.66"><defs><clipPath id="a"><rect width="239.965" height="109.66" fill="none"/></clipPath></defs><g clip-path="url(#a)"><path d="M83.619,0H23.065C10.347,0,0,10.636,0,23.71V85.949c0,13.074,10.347,23.71,23.065,23.71H83.619c12.719,0,23.067-10.636,23.067-23.71V23.71C106.687,10.636,96.338,0,83.619,0" fill="#003b5c"/><path d="M82.377,6.621H28.135C16.742,6.621,7.473,16.3,7.473,28.2V84.847c0,11.9,9.269,21.58,20.662,21.58H82.377c11.393,0,20.663-9.681,20.663-21.58V28.2c0-11.9-9.27-21.58-20.663-21.58m15.5,58.9V84.847c0,8.925-6.952,16.185-15.5,16.185H28.135c-8.545,0-15.5-7.26-15.5-16.185V28.2c0-8.925,6.952-16.185,15.5-16.185H82.377c8.545,0,15.5,7.26,15.5,16.185Z" transform="translate(-1.913 -1.695)" fill="#fff"/><path d="M87.1,28.267H32.684a5.6,5.6,0,0,0-5.477,5.718V80.033a5.6,5.6,0,0,0,5.477,5.72H50.712v6.812H46.369v3H73.413v-3H69.068V85.753H87.1a5.6,5.6,0,0,0,5.477-5.72V33.985A5.6,5.6,0,0,0,87.1,28.267M86.435,75.71a4.552,4.552,0,0,1-4.449,4.645H37.795a4.55,4.55,0,0,1-4.448-4.645v-37.4a4.549,4.549,0,0,1,4.448-4.645H81.986a4.55,4.55,0,0,1,4.449,4.645Z" transform="translate(-6.964 -7.235)" fill="#fff"/><path d="M45.633,79.031H84.274V41.959H45.633Zm18.583-2.016H48.409V58.857H64.216Zm0-20.662H48.409V44.247H64.216ZM81.5,77.016H65.691V58.857H81.5Zm0-20.662H65.691V44.247H81.5Z" transform="translate(-11.68 -10.74)" fill="#fff"/><path d="M45.633,79.031H84.274V41.959H45.633Zm18.583-2.016H48.409V58.857H64.216Zm0-20.662H48.409V44.247H64.216ZM81.5,77.016H65.691V58.857H81.5Zm0-20.662H65.691V44.247H81.5Z" transform="translate(-11.68 -10.74)" fill="none" stroke="#fff" stroke-width="0.14"/><path d="M200.608,72.518h7.032V73.79q0,7.707-2.812,9.966t-12.442,2.257q-10.926,0-13.442-3.57T176.43,63.35q0-9.142,3.408-12.022t14.253-2.88q7.9,0,10.547,2.367t2.651,9.4l.028.839h-7.033V60.1q0-3.624-1.366-4.639t-6.234-1.014q-6.518,0-7.829,1.6t-1.312,9.466q0,10.6,1.176,12.55t7.613,1.947q5.22,0,6.776-1.082t1.555-4.76Z" transform="translate(-45.16 -12.401)" fill="#fff"/><path d="M230.325,54.78V64.3h17.309v5.165H230.325V79.9h18.417v5.9H223.32V48.884h25.261v5.9Z" transform="translate(-57.162 -12.513)" fill="#fff"/><path d="M307.669,48.884V85.8h-7V65.68q0-2.408.135-5.463l.135-2.76.135-2.731h-.217l-.838,2.569-.812,2.569q-1.136,3.463-1.758,5.113L289.332,85.8H282.95l-8.195-20.663q-.676-1.7-1.785-5.111l-.839-2.571-.839-2.542h-.216l.135,2.679.135,2.7q.162,3.137.162,5.382V85.8h-7V48.884h11.413l6.6,17.093q.675,1.785,1.785,5.112l.811,2.569.839,2.542h.243l.784-2.542.811-2.542q1-3.219,1.731-5.084l6.491-17.147Z" transform="translate(-67.704 -12.513)" fill="#fff"/></g></svg>