<svg xmlns="http://www.w3.org/2000/svg" width="184.844" height="34.353" viewBox="0 0 184.844 34.353"><g transform="translate(-633.046 -1143.404)"><g transform="translate(633.046 1143.404)"><path d="M1647.966,1264.2v-26h8.645v3.151h-5.159v7.9h4.585v3.151h-4.572v8.655h5.16v3.151Z" transform="translate(-1603.067 -1234.007)" fill="#fff"/><path d="M1890.823,1245.186v-2.279a1.365,1.365,0,0,0-1.524-1.557h-.55c-1,0-1.487.523-1.487,1.557v4.309a1.322,1.322,0,0,0,.287.984,6.237,6.237,0,0,0,.949.647l3.311,1.781c.725.411,1.237.735,1.549.959a2.541,2.541,0,0,1,.712.834,4.5,4.5,0,0,1,.25,1.868v5.542q0,4.39-4.21,4.384h-2.149q-4.179,0-4.172-4.782v-1.308h3.485v1.407a1.365,1.365,0,0,0,1.562,1.519h.612c.925,0,1.387-.511,1.387-1.519v-4.421a1.322,1.322,0,0,0-.287-.984,6.976,6.976,0,0,0-.949-.648l-3.323-1.843a10.434,10.434,0,0,1-1.587-.984,2.271,2.271,0,0,1-.712-1.034,5.053,5.053,0,0,1-.212-1.644v-5.318c0-2.964,1.387-4.458,4.173-4.458h2.174q4.179,0,4.173,4.458v2.541h-3.46v-.012Z" transform="translate(-1828.433 -1234.006)" fill="#fff"/><path d="M2179.285,1264.2H2169.8q-4.217,0-4.21-4.384v-17.161c0-2.964,1.386-4.458,4.172-4.458h3.348q4.179,0,4.173,4.458v18.394h2v3.151Zm-5.5-3.151V1242.87a1.365,1.365,0,0,0-1.562-1.519h-1.636a1.348,1.348,0,0,0-1.524,1.519v16.663a1.365,1.365,0,0,0,1.562,1.519Z" transform="translate(-2097.794 -1234.006)" fill="#fff"/><path d="M2523.984,1238.2v21.084q0,4.932-4.21,4.932h-2.948q-4.179,0-4.173-4.957v-21.046h3.486v21.146c0,1.133.512,1.706,1.524,1.706h1.412c.949,0,1.412-.573,1.412-1.706V1238.2Z" transform="translate(-2429.501 -1234.006)" fill="#fff"/><path d="M2813.216,1264.2h-3.485v-21.545c0-2.964,1.387-4.458,4.173-4.458h2.611q4.178,0,4.173,4.458V1264.2H2817.2v-9.527h-4v9.527Zm4-12.678v-8.655a1.348,1.348,0,0,0-1.524-1.519h-.949a1.348,1.348,0,0,0-1.524,1.519v8.655Z" transform="translate(-2713.436 -1234.006)" fill="#fff"/><path d="M3096.078,1264.2v-26h6.071q4.91,0,4.91,4.994v17.236c0,2.516-1.4,3.761-4.172,3.761h-6.809v.012Zm3.485-3.151h2.611q1.386,0,1.387-1.158v-16.663c0-1.258-.525-1.88-1.562-1.88h-2.436v19.7Z" transform="translate(-2987.115 -1234.006)" fill="#fff"/><path d="M3390.807,1254.676v-3.151h5.309V1264.2h-6.833q-4.029,0-4.035-4.384v-17.161c0-2.964,1.349-4.458,4.035-4.458h2.4q4.441,0,4.435,4.533v2.827h-3.485v-2.329c0-1.258-.5-1.88-1.487-1.88h-.874c-1.012,0-1.524.623-1.524,1.88v15.94c0,1.258.512,1.88,1.524,1.88h2.361v-6.376Z" transform="translate(-3263.493 -1234.006)" fill="#fff"/><path d="M3671.03,1238.2h6.833q3.992,0,4,4.458v6.414c0,2.266-.687,3.711-2.074,4.309l2.436,10.834h-3.311l-2.286-10.5h-2.111v10.5h-3.485V1238.2Zm3.485,12.528h2.286c1.037,0,1.562-.623,1.562-1.88v-5.616c0-1.258-.525-1.88-1.562-1.88h-2.286v9.377Z" transform="translate(-3536.632 -1234.006)" fill="#fff"/><path d="M3970.623,1264.2q-4.216,0-4.21-4.421v-17.124c0-2.964,1.387-4.458,4.173-4.458h3.348q4.179,0,4.173,4.458v17.124q0,4.427-4.21,4.421Zm.837-3.151h1.774c.924,0,1.387-.511,1.387-1.519V1242.87a1.365,1.365,0,0,0-1.562-1.519h-1.636a1.348,1.348,0,0,0-1.524,1.519v16.663a1.365,1.365,0,0,0,1.562,1.519Z" transform="translate(-3818.948 -1234.006)" fill="#fff"/><path d="M4282.163,1238.2v21.084q0,4.932-4.21,4.932H4275q-4.179,0-4.173-4.957v-21.046h3.485v21.146c0,1.133.513,1.706,1.524,1.706h1.412c.949,0,1.411-.573,1.411-1.706V1238.2Z" transform="translate(-4109.899 -1234.006)" fill="#fff"/><path d="M4572.429,1238.2h6.358q4.216,0,4.21,4.458v7.709c0,2.952-1.4,4.421-4.173,4.421h-2.9v9.415h-3.5v-26Zm3.5,13.437h2.211c.924,0,1.387-.51,1.387-1.519v-7.248a1.365,1.365,0,0,0-1.562-1.519h-2.037v10.286Z" transform="translate(-4398.153 -1234.006)" fill="#fff"/><path d="M1058.894,1334.659h3.848l6.746-6.712-1.924-1.918-8.67,8.63Z" transform="translate(-1040.055 -1317.95)" fill="#fff"/><path d="M1179.289,1549.522a5.332,5.332,0,0,0,1.512-3.076h-10.644l6.109,6.09,3.023-3.014Z" transform="translate(-1146.396 -1528.616)" fill="#fff"/><path d="M1180.544,1387.393a5.2,5.2,0,0,0-1.524-3.263l-2.936-2.927-6.209,6.189Z" transform="translate(-1146.126 -1370.683)" fill="#fff"/><path d="M871.614,1241.568l9.182-9.166-3.785-3.773-12.968,12.939Z" transform="translate(-853.824 -1224.858)" fill="#fff"/><path d="M642.742,1546.446H633.61a5.184,5.184,0,0,0,1.512,3.076l11.943,11.906a5.313,5.313,0,0,0,7.483,0l1.612-1.607-13.417-13.375Z" transform="translate(-633.585 -1528.616)" fill="#fff"/><path d="M642.2,1160.114l13.5-13.462L654,1144.945a5.313,5.313,0,0,0-7.483,0l-11.943,11.906a5.2,5.2,0,0,0-1.524,3.263Z" transform="translate(-633.046 -1143.404)" fill="#fff"/><path d="M876.923,1559.285l3.785-3.773-9.095-9.066h-7.571l12.88,12.839Z" transform="translate(-853.824 -1528.616)" fill="#fff"/><path d="M1062.742,1546.446h-3.848l8.57,8.531,1.924-1.905-6.646-6.625Z" transform="translate(-1040.055 -1528.616)" fill="#fff"/></g></g></svg>