<svg xmlns="http://www.w3.org/2000/svg" xmlns:xlink="http://www.w3.org/1999/xlink" width="24" height="24" viewBox="0 0 24 24">
  <defs>
    <clipPath id="clip-path">
      <rect id="Ret창ngulo_33" data-name="Ret창ngulo 33" width="18" height="18" fill="#fff"/>
    </clipPath>
  </defs>
  <g id="zoom" transform="translate(-948 -1698)">
    <g id="Grupo_56" data-name="Grupo 56" transform="translate(951 1701)">
      <g id="Grupo_55" data-name="Grupo 55" clip-path="url(#clip-path)">
        <path id="Caminho_99" data-name="Caminho 99" d="M16.6,18l-6.3-6.3a5.951,5.951,0,0,1-1.725.95A6.1,6.1,0,0,1,6.5,13a6.273,6.273,0,0,1-4.612-1.887A6.274,6.274,0,0,1,0,6.5,6.274,6.274,0,0,1,1.888,1.887,6.273,6.273,0,0,1,6.5,0a6.277,6.277,0,0,1,4.613,1.887A6.277,6.277,0,0,1,13,6.5a6.1,6.1,0,0,1-.35,2.075A5.951,5.951,0,0,1,11.7,10.3L18,16.6ZM6.5,11A4.34,4.34,0,0,0,9.688,9.688,4.34,4.34,0,0,0,11,6.5,4.34,4.34,0,0,0,9.688,3.312,4.34,4.34,0,0,0,6.5,2,4.34,4.34,0,0,0,3.312,3.312,4.34,4.34,0,0,0,2,6.5,4.34,4.34,0,0,0,3.312,9.688,4.34,4.34,0,0,0,6.5,11m1-1.5h-2v-2h-2v-2h2v-2h2v2h2v2h-2Z" fill="#fff"/>
      </g>
    </g>
    <rect id="Ret창ngulo_34" data-name="Ret창ngulo 34" width="24" height="24" transform="translate(948 1698)" fill="none"/>
  </g>
</svg>
